<svg width="805" height="805" fill="none" xmlns="http://www.w3.org/2000/svg"><g filter="url(#a)"><path d="M403.753 132.5V5c238.786.427 330.203 162.208 375.5 272.5 0 0-88.477 32.052-112.5 37.5-24.023 5.448-28.523-.847-21.753-27.5l-15.747-8.5v26l-6.5 27.5-97.5 31.5c-25.301-60.964-50.894-82.651-121.5-94v-93.5s-9.261-16.637-20-11.5c-10.739 5.137-16.761 5.563-27.5 0-4.518-2.279-13.771-19.324 0-32.5 13.771-13.176 17.554 4.89 34 11.5l13.5-11.5Z" fill="url(#b)"/><path d="M403.753 132.5V5c238.786.427 330.203 162.208 375.5 272.5 0 0-88.477 32.052-112.5 37.5-24.023 5.448-28.523-.847-21.753-27.5l-15.747-8.5v26l-6.5 27.5-97.5 31.5c-25.301-60.964-50.894-82.651-121.5-94v-93.5s-9.261-16.637-20-11.5c-10.739 5.137-16.761 5.563-27.5 0-4.518-2.279-13.771-19.324 0-32.5 13.771-13.176 17.554 4.89 34 11.5l13.5-11.5Z" stroke="#fff"/></g><path d="m149.5 327-125-42.5C51.125 205.251 66.346 160.822 168 82c78.171-59.439 133.892-68.11 235-80v113.5c-2.368 31.58-6.413 40.911-25 22.5-32.884-13.459-33.3-1.688-25 29 20.621 10.095 47.013-15.271 50 10 2.845 24.066-4.162 95.594-.614 98.581l.614-.081c-.233.208-.437.23-.614.081C324.83 285.844 299.362 306.996 280.5 367L178 334.5c-10.433 5.351-12.489 14.888-10 42.5-4.943 7.128-35.268 10.096-35-10 .268-20.096 23.64-34.172 16.5-40Z" fill="url(#c)"/><path d="m24.5 284.5 125 42.5c7.14 5.828-16.232 19.904-16.5 40-.268 20.096 30.057 17.128 35 10-2.489-27.612-.433-37.149 10-42.5L280.5 367c18.912-60.162 44.464-81.268 122.5-91.5-4.888 4.37 2.987-73.229 0-98.5s-29.379.095-50-10c-8.3-30.688-7.884-42.459 25-29 18.587 18.411 22.632 9.08 25-22.5V2C301.892 13.89 246.171 22.561 168 82 66.346 160.822 51.125 205.251 24.5 284.5Z" stroke="#000"/><path d="M33 549.5C-6.967 450.957-5.012 393.29 23 288l125 41.5s0 7.5-11 18.5-3.206 22.017 15.5 26.5c2.167 6.525 23.389 2.492 17-14-6.389-16.492-2.39-14.617 8.5-23.5l97.5 30c-8.624 77.572 8.165 105.036 55 141.5l-55 78.5c-3.527 25.805 3.88 26.187 20 22.5 10.334 14.596 11.626 20.791 7.5 29-9.253 10.106-14.776 13.498-27.5 0-5.726-16.608-11.107-19.774-23.5-17.5l-82.5 105C101.608 670.003 70.106 632.79 33 549.5Z" fill="url(#d)" stroke="#fff"/><path d="m272 597 61-85c62.301 30.779 93.63 25.357 145.5-6l50 72.5c9.072 11.915 14.235 13.053 23.5 11 0 0 7.5-9.5 20-22s31.148 11.722 17.5 29.5c-24.79-.544-31.381 4.103-26 24l75 101c-66.9 48.876-113.842 65.446-211.5 79-108.79-3.298-164.766-18.679-255-72l82.5-108c16.901 4.66 18.796 9.645 17.5 20 20.295 14.135 36 0 36 0s.614-14.358-12-24c-14.931 3.63-19.929-2.063-24-20Z" fill="url(#e)" stroke="#fff"/><path d="M478 505.5c52.168-50.801 54.258-81.25 45-136.5l91-32.5 12.5-12.5-12.5-22.5c-4.315-15.256-1.376-19.516 9-23 0 0 16-7 16 3v20l11.5 17.5L779 281.5c23.902 89.464 22.271 138.225 6.5 224C748.333 607.425 714.875 653.63 639 722c0 0-75-95-75-110s26.5-15 26.5-15 6.738-9.188 2.5-19c0 0-19-22.5-29-10s-6.286 22.866-25 19l-61-81.5Z" fill="url(#f)" stroke="#fff"/><path d="M402 4.5v135c-7 16.5-34 0-34 0s-20-17-20 12.5 20 16 20 16c14.972-8.132 22.363-7.876 34 0v106.5M170 729.682l79.866-108.841c15.405-9.162 27.412 20.115 27.412 20.115s6.068 25.537 23.52 1.754c17.452-23.784-6.659-24.732-6.659-24.732-16.882-2.301-22.689-6.88-27.412-20.115L329.733 512M18.347 288l127.762 40.671c13.885 10.406-8.404 26.399-8.404 26.399s-21.032 10.407 6.886 19.294c27.919 8.888 20.086-10.708 20.086-10.708-3.996-14.075-1.926-19.736 8.403-26.398l100.79 32.085M643.98 719.689l-81.49-106.474c-5.431-16.479 22-16.837 22-16.837s23.202 3.503 5.395-19.763c-17.807-23.267-22.599-2.715-22.599-2.715-4.779 13.829-9.715 17.286-21.999 16.838L481 506.742M779.326 274.983l-126.706 43.85c-17.55-.601-10.02-28.953-10.02-28.953s10.062-22.552-17.626-12.97c-27.688 9.582-9.123 22.228-9.123 22.228 12.045 10.108 13.982 16.484 10.02 28.952l-99.957 34.593" stroke="#fff" stroke-width="12"/><circle cx="402" cy="403" r="127" fill="url(#g)" stroke="#fff" stroke-width="12"/><circle cx="402.5" cy="402.5" r="396.5" stroke="#fff" stroke-width="12"/><defs><linearGradient id="b" x1="564.127" y1="5" x2="564.127" y2="364" gradientUnits="userSpaceOnUse"><stop stop-color="#007EA9"/><stop offset="1" stop-color="#01ACD3"/></linearGradient><linearGradient id="c" x1="214.099" y1="2" x2="214.099" y2="382.385" gradientUnits="userSpaceOnUse"><stop stop-color="#083349"/><stop offset="1" stop-color="#044564"/></linearGradient><linearGradient id="d" x1="166.459" y1="288" x2="166.459" y2="726" gradientUnits="userSpaceOnUse"><stop stop-color="#007BA6"/><stop offset=".495" stop-color="#007DA8"/><stop offset="1" stop-color="#00ABD3"/></linearGradient><linearGradient id="e" x1="405.25" y1="506" x2="405.25" y2="801" gradientUnits="userSpaceOnUse"><stop stop-color="#93172B"/><stop offset="1" stop-color="#B41C31"/></linearGradient><linearGradient id="f" x1="637.592" y1="274" x2="637.592" y2="722" gradientUnits="userSpaceOnUse"><stop stop-color="#092D40"/><stop offset="1" stop-color="#034C6D"/></linearGradient><linearGradient id="g" x1="402" y1="270" x2="402" y2="536" gradientUnits="userSpaceOnUse"><stop stop-color="#063D57"/><stop offset=".526" stop-color="#063D57"/><stop offset="1" stop-color="#063D57"/></linearGradient><filter id="a" x="344.5" y="4.499" width="439.414" height="368.118" filterUnits="userSpaceOnUse" color-interpolation-filters="sRGB"><feFlood flood-opacity="0" result="BackgroundImageFix"/><feColorMatrix in="SourceAlpha" values="0 0 0 0 0 0 0 0 0 0 0 0 0 0 0 0 0 0 127 0" result="hardAlpha"/><feOffset dy="4"/><feGaussianBlur stdDeviation="2"/><feComposite in2="hardAlpha" operator="out"/><feColorMatrix values="0 0 0 0 0 0 0 0 0 0 0 0 0 0 0 0 0 0 0.25 0"/><feBlend in2="BackgroundImageFix" result="effect1_dropShadow_0:1"/><feBlend in="SourceGraphic" in2="effect1_dropShadow_0:1" result="shape"/></filter></defs></svg>