<svg width="805" height="805" viewBox="0 0 805 805" fill="none" xmlns="http://www.w3.org/2000/svg">
<g filter="url(#filter0_d_0:1)">
<path d="M403.753 132.5V5C642.539 5.42746 733.956 167.208 779.253 277.5C779.253 277.5 690.776 309.552 666.753 315C642.73 320.448 638.23 314.153 645 287.5L629.253 279V305L622.753 332.5L525.253 364C499.952 303.036 474.359 281.349 403.753 270V176.5C403.753 176.5 394.492 159.863 383.753 165C373.014 170.137 366.992 170.563 356.253 165C351.735 162.721 342.482 145.676 356.253 132.5C370.024 119.324 373.807 137.39 390.253 144L403.753 132.5Z" fill="url(#paint0_linear_0:1)"/>
<path d="M403.753 132.5V5C642.539 5.42746 733.956 167.208 779.253 277.5C779.253 277.5 690.776 309.552 666.753 315C642.73 320.448 638.23 314.153 645 287.5L629.253 279V305L622.753 332.5L525.253 364C499.952 303.036 474.359 281.349 403.753 270V176.5C403.753 176.5 394.492 159.863 383.753 165C373.014 170.137 366.992 170.563 356.253 165C351.735 162.721 342.482 145.676 356.253 132.5C370.024 119.324 373.807 137.39 390.253 144L403.753 132.5Z" stroke="white"/>
</g>
<path d="M149.5 327L24.5 284.5C51.1248 205.251 66.3464 160.822 168 82C246.171 22.5614 301.892 13.8906 403 2V115.5C400.632 147.08 396.587 156.411 378 138C345.116 124.541 344.7 136.312 353 167C373.621 177.095 400.013 151.729 403 177C405.845 201.066 398.838 272.594 402.386 275.581C402.59 275.554 402.795 275.527 403 275.5C402.767 275.708 402.563 275.73 402.386 275.581C324.83 285.844 299.362 306.996 280.5 367L178 334.5C167.567 339.851 165.511 349.388 168 377C163.057 384.128 132.732 387.096 133 367C133.268 346.904 156.64 332.828 149.5 327Z" fill="url(#paint1_linear_0:1)"/>
<path d="M24.5 284.5L149.5 327C156.64 332.828 133.268 346.904 133 367C132.732 387.096 163.057 384.128 168 377C165.511 349.388 167.567 339.851 178 334.5L280.5 367C299.412 306.838 324.964 285.732 403 275.5C398.112 279.87 405.987 202.271 403 177C400.013 151.729 373.621 177.095 353 167C344.7 136.312 345.116 124.541 378 138C396.587 156.411 400.632 147.08 403 115.5V2C301.892 13.8906 246.171 22.5614 168 82C66.3464 160.822 51.1248 205.251 24.5 284.5Z" stroke="black"/>
<path d="M33 549.5C-6.96699 450.957 -5.01221 393.29 23 288L148 329.5C148 329.5 148 337 137 348C126 359 133.794 370.017 152.5 374.5C154.667 381.025 175.889 376.992 169.5 360.5C163.111 344.008 167.11 345.883 178 337L275.5 367C266.876 444.572 283.665 472.036 330.5 508.5L275.5 587C271.973 612.805 279.38 613.187 295.5 609.5C305.834 624.096 307.126 630.291 303 638.5C293.747 648.606 288.224 651.998 275.5 638.5C269.774 621.892 264.393 618.726 252 621L169.5 726C101.608 670.003 70.1064 632.79 33 549.5Z" fill="url(#paint2_linear_0:1)" stroke="white"/>
<path d="M272 597L333 512C395.301 542.779 426.63 537.357 478.5 506L528.5 578.5C537.572 590.415 542.735 591.553 552 589.5C552 589.5 559.5 580 572 567.5C584.5 555 603.148 579.222 589.5 597C564.71 596.456 558.119 601.103 563.5 621L638.5 722C571.6 770.876 524.658 787.446 427 801C318.21 797.702 262.234 782.321 172 729L254.5 621C271.401 625.66 273.296 630.645 272 641C292.295 655.135 308 641 308 641C308 641 308.614 626.642 296 617C281.069 620.63 276.071 614.937 272 597Z" fill="url(#paint3_linear_0:1)" stroke="white"/>
<path d="M478 505.5C530.168 454.699 532.258 424.25 523 369L614 336.5L626.5 324L614 301.5C609.685 286.244 612.624 281.984 623 278.5C623 278.5 639 271.5 639 281.5V301.5L650.5 319L779 281.5C802.902 370.964 801.271 419.725 785.5 505.5C748.333 607.425 714.875 653.63 639 722C639 722 564 627 564 612C564 597 590.5 597 590.5 597C590.5 597 597.238 587.812 593 578C593 578 574 555.5 564 568C554 580.5 557.714 590.866 539 587L478 505.5Z" fill="url(#paint4_linear_0:1)" stroke="white"/>
<path d="M402 4.5V139.5C395 156 368 139.5 368 139.5C368 139.5 348 122.5 348 152C348 181.5 368 168 368 168C382.972 159.868 390.363 160.124 402 168V274.5" stroke="white" stroke-width="12"/>
<path d="M170 729.682L249.866 620.841C265.271 611.679 277.278 640.956 277.278 640.956C277.278 640.956 283.346 666.493 300.798 642.71C318.25 618.926 294.139 617.978 294.139 617.978C277.257 615.677 271.45 611.098 266.727 597.863L329.733 512" stroke="white" stroke-width="12"/>
<path d="M18.3469 288L146.109 328.671C159.994 339.077 137.705 355.07 137.705 355.07C137.705 355.07 116.673 365.477 144.591 374.364C172.51 383.252 164.677 363.656 164.677 363.656C160.681 349.581 162.751 343.92 173.08 337.258L273.87 369.343" stroke="white" stroke-width="12"/>
<path d="M643.98 719.689L562.49 613.215C557.059 596.736 584.49 596.378 584.49 596.378C584.49 596.378 607.692 599.881 589.885 576.615C572.078 553.348 567.286 573.9 567.286 573.9C562.507 587.729 557.571 591.186 545.287 590.738L481 506.742" stroke="white" stroke-width="12"/>
<path d="M779.326 274.983L652.62 318.833C635.07 318.232 642.6 289.88 642.6 289.88C642.6 289.88 652.662 267.328 624.974 276.91C597.286 286.492 615.851 299.138 615.851 299.138C627.896 309.246 629.833 315.622 625.871 328.09L525.914 362.683" stroke="white" stroke-width="12"/>
<circle cx="402" cy="403" r="127" fill="url(#paint5_linear_0:1)" stroke="white" stroke-width="12"/>
<circle cx="402.5" cy="402.5" r="396.5" stroke="white" stroke-width="12"/>
<defs>
<filter id="filter0_d_0:1" x="344.5" y="4.49911" width="439.414" height="368.118" filterUnits="userSpaceOnUse" color-interpolation-filters="sRGB">
<feFlood flood-opacity="0" result="BackgroundImageFix"/>
<feColorMatrix in="SourceAlpha" type="matrix" values="0 0 0 0 0 0 0 0 0 0 0 0 0 0 0 0 0 0 127 0" result="hardAlpha"/>
<feOffset dy="4"/>
<feGaussianBlur stdDeviation="2"/>
<feComposite in2="hardAlpha" operator="out"/>
<feColorMatrix type="matrix" values="0 0 0 0 0 0 0 0 0 0 0 0 0 0 0 0 0 0 0.25 0"/>
<feBlend mode="normal" in2="BackgroundImageFix" result="effect1_dropShadow_0:1"/>
<feBlend mode="normal" in="SourceGraphic" in2="effect1_dropShadow_0:1" result="shape"/>
</filter>
<linearGradient id="paint0_linear_0:1" x1="564.127" y1="5" x2="564.127" y2="364" gradientUnits="userSpaceOnUse">
<stop stop-color="#007EA9"/>
<stop offset="1" stop-color="#01ACD3"/>
</linearGradient>
<linearGradient id="paint1_linear_0:1" x1="214.099" y1="2" x2="214.099" y2="382.385" gradientUnits="userSpaceOnUse">
<stop stop-color="#083349"/>
<stop offset="1" stop-color="#044564"/>
</linearGradient>
<linearGradient id="paint2_linear_0:1" x1="166.459" y1="288" x2="166.459" y2="726" gradientUnits="userSpaceOnUse">
<stop stop-color="#007BA6"/>
<stop offset="0.494792" stop-color="#007DA8"/>
<stop offset="1" stop-color="#00ABD3"/>
</linearGradient>
<linearGradient id="paint3_linear_0:1" x1="405.25" y1="506" x2="405.25" y2="801" gradientUnits="userSpaceOnUse">
<stop stop-color="#93172B"/>
<stop offset="1" stop-color="#B41C31"/>
</linearGradient>
<linearGradient id="paint4_linear_0:1" x1="637.592" y1="274" x2="637.592" y2="722" gradientUnits="userSpaceOnUse">
<stop stop-color="#092D40"/>
<stop offset="1" stop-color="#034C6D"/>
</linearGradient>
<linearGradient id="paint5_linear_0:1" x1="402" y1="270" x2="402" y2="536" gradientUnits="userSpaceOnUse">
<stop stop-color="#063D57"/>
<stop offset="0.526042" stop-color="#063D57"/>
<stop offset="1" stop-color="#063D57"/>
</linearGradient>
</defs>
</svg>
